<?xml version="1.0" encoding="UTF-8" standalone="no"?>
<!DOCTYPE svg PUBLIC "-//W3C//DTD SVG 1.1//EN"
 "http://www.w3.org/Graphics/SVG/1.1/DTD/svg11.dtd">
<!-- Generated by graphviz version 3.0.0 (20220226.1711)
 -->
<!-- Title: dependencies Pages: 1 -->
<svg width="548pt" height="247pt"
 viewBox="0.00 0.00 548.00 246.80" xmlns="http://www.w3.org/2000/svg" xmlns:xlink="http://www.w3.org/1999/xlink">
<g id="graph0" class="graph" transform="scale(1 1) rotate(0) translate(4 242.8)">
<title>dependencies</title>
<polygon fill="white" stroke="transparent" points="-4,4 -4,-242.8 544,-242.8 544,4 -4,4"/>
<text text-anchor="middle" x="270" y="-8.2" font-family="sans-serif" font-size="14.00">dependencies</text>
<g id="clust1" class="cluster">
<title>cluster_IntersectionModule</title>
<polygon fill="none" stroke="black" stroke-dasharray="1,5" points="8,-32.8 8,-230.8 532,-230.8 532,-32.8 8,-32.8"/>
</g>
<g id="clust4" class="cluster">
<title>cluster_IntersectionModule_exports</title>
<polygon fill="none" stroke="black" points="172,-170.8 172,-222.8 304,-222.8 304,-170.8 172,-170.8"/>
</g>
<g id="clust6" class="cluster">
<title>cluster_IntersectionModule_providers</title>
<polygon fill="none" stroke="black" points="152,-40.8 152,-92.8 524,-92.8 524,-40.8 152,-40.8"/>
</g>
<g id="clust3" class="cluster">
<title>cluster_IntersectionModule_imports</title>
<polygon fill="none" stroke="black" points="16,-40.8 16,-92.8 144,-92.8 144,-40.8 16,-40.8"/>
</g>
<!-- CommonModule -->
<g id="node1" class="node">
<title>CommonModule</title>
<polygon fill="#8dd3c7" stroke="black" points="135.67,-84.8 132.67,-88.8 111.67,-88.8 108.67,-84.8 24.33,-84.8 24.33,-48.8 135.67,-48.8 135.67,-84.8"/>
<text text-anchor="middle" x="80" y="-62.6" font-family="Times,serif" font-size="14.00">CommonModule</text>
</g>
<!-- IntersectionModule -->
<g id="node2" class="node">
<title>IntersectionModule</title>
<polygon fill="#8dd3c7" stroke="black" points="300.64,-149.8 297.64,-153.8 276.64,-153.8 273.64,-149.8 175.36,-149.8 175.36,-113.8 300.64,-113.8 300.64,-149.8"/>
<text text-anchor="middle" x="238" y="-127.6" font-family="Times,serif" font-size="14.00">IntersectionModule</text>
</g>
<!-- CommonModule&#45;&gt;IntersectionModule -->
<g id="edge1" class="edge">
<title>CommonModule&#45;&gt;IntersectionModule</title>
<path fill="none" stroke="black" d="M80,-84.91C80,-104.14 80,-131.8 80,-131.8 80,-131.8 165.1,-131.8 165.1,-131.8"/>
<polygon fill="black" stroke="black" points="165.1,-135.3 175.1,-131.8 165.1,-128.3 165.1,-135.3"/>
</g>
<!-- InvitationService  -->
<g id="node3" class="node">
<title>InvitationService </title>
<polygon fill="#fb8072" stroke="black" points="295.91,-214.8 180.09,-214.8 180.09,-178.8 295.91,-178.8 295.91,-214.8"/>
<text text-anchor="middle" x="238" y="-192.6" font-family="Times,serif" font-size="14.00">InvitationService </text>
</g>
<!-- IntersectionModule&#45;&gt;InvitationService  -->
<g id="edge2" class="edge">
<title>IntersectionModule&#45;&gt;InvitationService </title>
<path fill="none" stroke="black" stroke-dasharray="5,2" d="M238,-149.91C238,-149.91 238,-168.79 238,-168.79"/>
<polygon fill="black" stroke="black" points="234.5,-168.79 238,-178.79 241.5,-168.79 234.5,-168.79"/>
</g>
<!-- InvitationRepository -->
<g id="node4" class="node">
<title>InvitationRepository</title>
<ellipse fill="#fdb462" stroke="black" cx="425" cy="-66.8" rx="90.93" ry="18"/>
<text text-anchor="middle" x="425" y="-62.6" font-family="Times,serif" font-size="14.00">InvitationRepository</text>
</g>
<!-- InvitationRepository&#45;&gt;IntersectionModule -->
<g id="edge3" class="edge">
<title>InvitationRepository&#45;&gt;IntersectionModule</title>
<path fill="none" stroke="black" d="M425,-84.91C425,-104.14 425,-131.8 425,-131.8 425,-131.8 310.79,-131.8 310.79,-131.8"/>
<polygon fill="black" stroke="black" points="310.79,-128.3 300.79,-131.8 310.79,-135.3 310.79,-128.3"/>
</g>
<!-- InvitationService -->
<g id="node5" class="node">
<title>InvitationService</title>
<ellipse fill="#fdb462" stroke="black" cx="238" cy="-66.8" rx="77.58" ry="18"/>
<text text-anchor="middle" x="238" y="-62.6" font-family="Times,serif" font-size="14.00">InvitationService</text>
</g>
<!-- InvitationService&#45;&gt;IntersectionModule -->
<g id="edge4" class="edge">
<title>InvitationService&#45;&gt;IntersectionModule</title>
<path fill="none" stroke="black" d="M238,-84.91C238,-84.91 238,-103.79 238,-103.79"/>
<polygon fill="black" stroke="black" points="234.5,-103.79 238,-113.79 241.5,-103.79 234.5,-103.79"/>
</g>
</g>
</svg>
