<?xml version="1.0" encoding="UTF-8" standalone="no"?>
<!DOCTYPE svg PUBLIC "-//W3C//DTD SVG 1.1//EN"
 "http://www.w3.org/Graphics/SVG/1.1/DTD/svg11.dtd">
<!-- Generated by graphviz version 3.0.0 (20220226.1711)
 -->
<!-- Title: dependencies Pages: 1 -->
<svg width="548pt" height="247pt"
 viewBox="0.00 0.00 548.00 246.80" xmlns="http://www.w3.org/2000/svg" xmlns:xlink="http://www.w3.org/1999/xlink">
<g id="graph0" class="graph" transform="scale(1 1) rotate(0) translate(4 242.8)">
<title>dependencies</title>
<polygon fill="white" stroke="transparent" points="-4,4 -4,-242.8 544,-242.8 544,4 -4,4"/>
<text text-anchor="middle" x="270" y="-8.2" font-family="sans-serif" font-size="14.00">dependencies</text>
<g id="clust1" class="cluster">
<title>cluster_InvitationModule</title>
<polygon fill="none" stroke="black" stroke-dasharray="1,5" points="8,-32.8 8,-230.8 532,-230.8 532,-32.8 8,-32.8"/>
</g>
<g id="clust4" class="cluster">
<title>cluster_InvitationModule_exports</title>
<polygon fill="none" stroke="black" points="223,-170.8 223,-222.8 355,-222.8 355,-170.8 223,-170.8"/>
</g>
<g id="clust3" class="cluster">
<title>cluster_InvitationModule_imports</title>
<polygon fill="none" stroke="black" points="396,-40.8 396,-92.8 524,-92.8 524,-40.8 396,-40.8"/>
</g>
<g id="clust6" class="cluster">
<title>cluster_InvitationModule_providers</title>
<polygon fill="none" stroke="black" points="16,-40.8 16,-92.8 388,-92.8 388,-40.8 16,-40.8"/>
</g>
<!-- CommonModule -->
<g id="node1" class="node">
<title>CommonModule</title>
<polygon fill="#8dd3c7" stroke="black" points="515.67,-84.8 512.67,-88.8 491.67,-88.8 488.67,-84.8 404.33,-84.8 404.33,-48.8 515.67,-48.8 515.67,-84.8"/>
<text text-anchor="middle" x="460" y="-62.6" font-family="Times,serif" font-size="14.00">CommonModule</text>
</g>
<!-- InvitationModule -->
<g id="node2" class="node">
<title>InvitationModule</title>
<polygon fill="#8dd3c7" stroke="black" points="345.99,-149.8 342.99,-153.8 321.99,-153.8 318.99,-149.8 232.01,-149.8 232.01,-113.8 345.99,-113.8 345.99,-149.8"/>
<text text-anchor="middle" x="289" y="-127.6" font-family="Times,serif" font-size="14.00">InvitationModule</text>
</g>
<!-- CommonModule&#45;&gt;InvitationModule -->
<g id="edge1" class="edge">
<title>CommonModule&#45;&gt;InvitationModule</title>
<path fill="none" stroke="black" d="M460,-84.91C460,-104.14 460,-131.8 460,-131.8 460,-131.8 356.42,-131.8 356.42,-131.8"/>
<polygon fill="black" stroke="black" points="356.42,-128.3 346.42,-131.8 356.42,-135.3 356.42,-128.3"/>
</g>
<!-- InvitationService  -->
<g id="node3" class="node">
<title>InvitationService </title>
<polygon fill="#fb8072" stroke="black" points="346.91,-214.8 231.09,-214.8 231.09,-178.8 346.91,-178.8 346.91,-214.8"/>
<text text-anchor="middle" x="289" y="-192.6" font-family="Times,serif" font-size="14.00">InvitationService </text>
</g>
<!-- InvitationModule&#45;&gt;InvitationService  -->
<g id="edge2" class="edge">
<title>InvitationModule&#45;&gt;InvitationService </title>
<path fill="none" stroke="black" stroke-dasharray="5,2" d="M289,-149.91C289,-149.91 289,-168.79 289,-168.79"/>
<polygon fill="black" stroke="black" points="285.5,-168.79 289,-178.79 292.5,-168.79 285.5,-168.79"/>
</g>
<!-- InvitationRepository -->
<g id="node4" class="node">
<title>InvitationRepository</title>
<ellipse fill="#fdb462" stroke="black" cx="289" cy="-66.8" rx="90.93" ry="18"/>
<text text-anchor="middle" x="289" y="-62.6" font-family="Times,serif" font-size="14.00">InvitationRepository</text>
</g>
<!-- InvitationRepository&#45;&gt;InvitationModule -->
<g id="edge3" class="edge">
<title>InvitationRepository&#45;&gt;InvitationModule</title>
<path fill="none" stroke="black" d="M289,-84.91C289,-84.91 289,-103.79 289,-103.79"/>
<polygon fill="black" stroke="black" points="285.5,-103.79 289,-113.79 292.5,-103.79 285.5,-103.79"/>
</g>
<!-- InvitationService -->
<g id="node5" class="node">
<title>InvitationService</title>
<ellipse fill="#fdb462" stroke="black" cx="102" cy="-66.8" rx="77.58" ry="18"/>
<text text-anchor="middle" x="102" y="-62.6" font-family="Times,serif" font-size="14.00">InvitationService</text>
</g>
<!-- InvitationService&#45;&gt;InvitationModule -->
<g id="edge4" class="edge">
<title>InvitationService&#45;&gt;InvitationModule</title>
<path fill="none" stroke="black" d="M102,-84.91C102,-104.14 102,-131.8 102,-131.8 102,-131.8 221.88,-131.8 221.88,-131.8"/>
<polygon fill="black" stroke="black" points="221.88,-135.3 231.88,-131.8 221.88,-128.3 221.88,-135.3"/>
</g>
</g>
</svg>
