<?xml version="1.0" encoding="UTF-8" standalone="no"?>
<!DOCTYPE svg PUBLIC "-//W3C//DTD SVG 1.1//EN"
 "http://www.w3.org/Graphics/SVG/1.1/DTD/svg11.dtd">
<!-- Generated by graphviz version 3.0.0 (20220226.1711)
 -->
<!-- Title: dependencies Pages: 1 -->
<svg width="1284pt" height="389pt"
 viewBox="0.00 0.00 1284.00 388.80" xmlns="http://www.w3.org/2000/svg" xmlns:xlink="http://www.w3.org/1999/xlink">
<g id="graph0" class="graph" transform="scale(1 1) rotate(0) translate(4 384.8)">
<title>dependencies</title>
<polygon fill="white" stroke="transparent" points="-4,4 -4,-384.8 1280,-384.8 1280,4 -4,4"/>
<text text-anchor="middle" x="638" y="-8.2" font-family="sans-serif" font-size="14.00">dependencies</text>
<g id="clust31" class="cluster">
<title>cluster_LoggerModule</title>
<polygon fill="none" stroke="black" stroke-dasharray="1,5" points="1100,-32.8 1100,-236.8 1268,-236.8 1268,-32.8 1100,-32.8"/>
</g>
<g id="clust34" class="cluster">
<title>cluster_LoggerModule_exports</title>
<polygon fill="none" stroke="black" points="1116,-176.8 1116,-228.8 1234,-228.8 1234,-176.8 1116,-176.8"/>
</g>
<g id="clust36" class="cluster">
<title>cluster_LoggerModule_providers</title>
<polygon fill="none" stroke="black" points="1108,-40.8 1108,-92.8 1260,-92.8 1260,-40.8 1108,-40.8"/>
</g>
<g id="clust7" class="cluster">
<title>cluster_CommonModule</title>
<polygon fill="none" stroke="black" stroke-dasharray="1,5" points="796,-100.8 796,-304.8 1092,-304.8 1092,-100.8 796,-100.8"/>
</g>
<g id="clust10" class="cluster">
<title>cluster_CommonModule_exports</title>
<polygon fill="none" stroke="black" points="804,-244.8 804,-296.8 1084,-296.8 1084,-244.8 804,-244.8"/>
</g>
<g id="clust9" class="cluster">
<title>cluster_CommonModule_imports</title>
<polygon fill="none" stroke="black" points="804,-108.8 804,-160.8 958,-160.8 958,-108.8 804,-108.8"/>
</g>
<g id="clust1" class="cluster">
<title>cluster_AppModule</title>
<polygon fill="none" stroke="black" stroke-dasharray="1,5" points="1100,-244.8 1100,-296.8 1200,-296.8 1200,-244.8 1100,-244.8"/>
</g>
<g id="clust25" class="cluster">
<title>cluster_IntersectionModule</title>
<polygon fill="none" stroke="black" stroke-dasharray="1,5" points="8,-168.8 8,-372.8 396,-372.8 396,-168.8 8,-168.8"/>
</g>
<g id="clust28" class="cluster">
<title>cluster_IntersectionModule_exports</title>
<polygon fill="none" stroke="black" points="223,-312.8 223,-364.8 355,-364.8 355,-312.8 223,-312.8"/>
</g>
<g id="clust30" class="cluster">
<title>cluster_IntersectionModule_providers</title>
<polygon fill="none" stroke="black" points="16,-176.8 16,-228.8 388,-228.8 388,-176.8 16,-176.8"/>
</g>
<g id="clust19" class="cluster">
<title>cluster_HttpResponseModule</title>
<polygon fill="none" stroke="black" stroke-dasharray="1,5" points="404,-168.8 404,-236.8 788,-236.8 788,-168.8 404,-168.8"/>
</g>
<g id="clust22" class="cluster">
<title>cluster_HttpResponseModule_exports</title>
<polygon fill="none" stroke="black" points="624,-176.8 624,-228.8 780,-228.8 780,-176.8 624,-176.8"/>
</g>
<g id="clust24" class="cluster">
<title>cluster_HttpResponseModule_providers</title>
<polygon fill="none" stroke="black" points="412,-176.8 412,-228.8 616,-228.8 616,-176.8 412,-176.8"/>
</g>
<!-- CommonModule -->
<g id="node1" class="node">
<title>CommonModule</title>
<polygon fill="#8dd3c7" stroke="black" points="998.67,-220.8 995.67,-224.8 974.67,-224.8 971.67,-220.8 887.33,-220.8 887.33,-184.8 998.67,-184.8 998.67,-220.8"/>
<text text-anchor="middle" x="943" y="-198.6" font-family="Times,serif" font-size="14.00">CommonModule</text>
</g>
<!-- AppModule -->
<g id="node2" class="node">
<title>AppModule</title>
<polygon fill="#8dd3c7" stroke="black" points="1191.66,-288.8 1188.66,-292.8 1167.66,-292.8 1164.66,-288.8 1108.34,-288.8 1108.34,-252.8 1191.66,-252.8 1191.66,-288.8"/>
<text text-anchor="middle" x="1150" y="-266.6" font-family="Times,serif" font-size="14.00">AppModule</text>
</g>
<!-- CommonModule&#45;&gt;AppModule -->
<g id="edge1" class="edge">
<title>CommonModule&#45;&gt;AppModule</title>
<path fill="none" stroke="black" d="M998.85,-202.8C1048.12,-202.8 1112.14,-202.8 1112.14,-202.8 1112.14,-202.8 1112.14,-242.58 1112.14,-242.58"/>
<polygon fill="black" stroke="black" points="1108.64,-242.58 1112.14,-252.58 1115.64,-242.58 1108.64,-242.58"/>
</g>
<!-- HttpResponseModule  -->
<g id="node5" class="node">
<title>HttpResponseModule </title>
<polygon fill="#fb8072" stroke="black" points="1075.6,-288.8 934.4,-288.8 934.4,-252.8 1075.6,-252.8 1075.6,-288.8"/>
<text text-anchor="middle" x="1005" y="-266.6" font-family="Times,serif" font-size="14.00">HttpResponseModule </text>
</g>
<!-- CommonModule&#45;&gt;HttpResponseModule  -->
<g id="edge4" class="edge">
<title>CommonModule&#45;&gt;HttpResponseModule </title>
<path fill="none" stroke="black" stroke-dasharray="5,2" d="M966.52,-221.02C966.52,-221.02 966.52,-242.53 966.52,-242.53"/>
<polygon fill="black" stroke="black" points="963.02,-242.53 966.52,-252.53 970.02,-242.53 963.02,-242.53"/>
</g>
<!-- LoggerModule  -->
<g id="node6" class="node">
<title>LoggerModule </title>
<polygon fill="#fb8072" stroke="black" points="915.98,-288.8 812.02,-288.8 812.02,-252.8 915.98,-252.8 915.98,-288.8"/>
<text text-anchor="middle" x="864" y="-266.6" font-family="Times,serif" font-size="14.00">LoggerModule </text>
</g>
<!-- CommonModule&#45;&gt;LoggerModule  -->
<g id="edge5" class="edge">
<title>CommonModule&#45;&gt;LoggerModule </title>
<path fill="none" stroke="black" stroke-dasharray="5,2" d="M901.45,-221.02C901.45,-221.02 901.45,-242.53 901.45,-242.53"/>
<polygon fill="black" stroke="black" points="897.95,-242.53 901.45,-252.53 904.95,-242.53 897.95,-242.53"/>
</g>
<!-- IntersectionModule -->
<g id="node9" class="node">
<title>IntersectionModule</title>
<polygon fill="#8dd3c7" stroke="black" points="351.64,-288.8 348.64,-292.8 327.64,-292.8 324.64,-288.8 226.36,-288.8 226.36,-252.8 351.64,-252.8 351.64,-288.8"/>
<text text-anchor="middle" x="289" y="-266.6" font-family="Times,serif" font-size="14.00">IntersectionModule</text>
</g>
<!-- CommonModule&#45;&gt;IntersectionModule -->
<g id="edge8" class="edge">
<title>CommonModule&#45;&gt;IntersectionModule</title>
<path fill="none" stroke="black" d="M887.2,-208.8C844.18,-208.8 791.98,-208.8 791.98,-208.8 791.98,-208.8 791.98,-270.8 791.98,-270.8 791.98,-270.8 361.69,-270.8 361.69,-270.8"/>
<polygon fill="black" stroke="black" points="361.69,-267.3 351.69,-270.8 361.69,-274.3 361.69,-267.3"/>
</g>
<!-- HttpResponseModule -->
<g id="node3" class="node">
<title>HttpResponseModule</title>
<polygon fill="#8dd3c7" stroke="black" points="950.1,-152.8 947.1,-156.8 926.1,-156.8 923.1,-152.8 811.9,-152.8 811.9,-116.8 950.1,-116.8 950.1,-152.8"/>
<text text-anchor="middle" x="881" y="-130.6" font-family="Times,serif" font-size="14.00">HttpResponseModule</text>
</g>
<!-- HttpResponseModule&#45;&gt;CommonModule -->
<g id="edge2" class="edge">
<title>HttpResponseModule&#45;&gt;CommonModule</title>
<path fill="none" stroke="black" d="M918.61,-153.02C918.61,-153.02 918.61,-174.53 918.61,-174.53"/>
<polygon fill="black" stroke="black" points="915.11,-174.53 918.61,-184.53 922.11,-174.53 915.11,-174.53"/>
</g>
<!-- HttpResponseService  -->
<g id="node7" class="node">
<title>HttpResponseService </title>
<polygon fill="#fb8072" stroke="black" points="772.03,-220.8 631.97,-220.8 631.97,-184.8 772.03,-184.8 772.03,-220.8"/>
<text text-anchor="middle" x="702" y="-198.6" font-family="Times,serif" font-size="14.00">HttpResponseService </text>
</g>
<!-- HttpResponseModule&#45;&gt;HttpResponseService  -->
<g id="edge6" class="edge">
<title>HttpResponseModule&#45;&gt;HttpResponseService </title>
<path fill="none" stroke="black" stroke-dasharray="5,2" d="M849.71,-153.07C849.71,-171.36 849.71,-196.8 849.71,-196.8 849.71,-196.8 782.4,-196.8 782.4,-196.8"/>
<polygon fill="black" stroke="black" points="782.4,-193.3 772.4,-196.8 782.4,-200.3 782.4,-193.3"/>
</g>
<!-- LoggerModule -->
<g id="node4" class="node">
<title>LoggerModule</title>
<polygon fill="#8dd3c7" stroke="black" points="1224.98,-152.8 1221.98,-156.8 1200.98,-156.8 1197.98,-152.8 1125.02,-152.8 1125.02,-116.8 1224.98,-116.8 1224.98,-152.8"/>
<text text-anchor="middle" x="1175" y="-130.6" font-family="Times,serif" font-size="14.00">LoggerModule</text>
</g>
<!-- LoggerModule&#45;&gt;CommonModule -->
<g id="edge3" class="edge">
<title>LoggerModule&#45;&gt;CommonModule</title>
<path fill="none" stroke="black" d="M1124.91,-134.8C1065.5,-134.8 974.44,-134.8 974.44,-134.8 974.44,-134.8 974.44,-174.58 974.44,-174.58"/>
<polygon fill="black" stroke="black" points="970.94,-174.58 974.44,-184.58 977.94,-174.58 970.94,-174.58"/>
</g>
<!-- LoggerService  -->
<g id="node13" class="node">
<title>LoggerService </title>
<polygon fill="#fb8072" stroke="black" points="1225.91,-220.8 1124.09,-220.8 1124.09,-184.8 1225.91,-184.8 1225.91,-220.8"/>
<text text-anchor="middle" x="1175" y="-198.6" font-family="Times,serif" font-size="14.00">LoggerService </text>
</g>
<!-- LoggerModule&#45;&gt;LoggerService  -->
<g id="edge12" class="edge">
<title>LoggerModule&#45;&gt;LoggerService </title>
<path fill="none" stroke="black" stroke-dasharray="5,2" d="M1175,-153.02C1175,-153.02 1175,-174.53 1175,-174.53"/>
<polygon fill="black" stroke="black" points="1171.5,-174.53 1175,-184.53 1178.5,-174.53 1171.5,-174.53"/>
</g>
<!-- HttpResponseService -->
<g id="node8" class="node">
<title>HttpResponseService</title>
<ellipse fill="#fdb462" stroke="black" cx="514" cy="-202.8" rx="94.35" ry="18"/>
<text text-anchor="middle" x="514" y="-198.6" font-family="Times,serif" font-size="14.00">HttpResponseService</text>
</g>
<!-- HttpResponseService&#45;&gt;HttpResponseModule -->
<g id="edge7" class="edge">
<title>HttpResponseService&#45;&gt;HttpResponseModule</title>
<path fill="none" stroke="black" d="M514,-184.58C514,-164.43 514,-134.8 514,-134.8 514,-134.8 801.54,-134.8 801.54,-134.8"/>
<polygon fill="black" stroke="black" points="801.54,-138.3 811.54,-134.8 801.54,-131.3 801.54,-138.3"/>
</g>
<!-- InvitationService  -->
<g id="node10" class="node">
<title>InvitationService </title>
<polygon fill="#fb8072" stroke="black" points="346.91,-356.8 231.09,-356.8 231.09,-320.8 346.91,-320.8 346.91,-356.8"/>
<text text-anchor="middle" x="289" y="-334.6" font-family="Times,serif" font-size="14.00">InvitationService </text>
</g>
<!-- IntersectionModule&#45;&gt;InvitationService  -->
<g id="edge9" class="edge">
<title>IntersectionModule&#45;&gt;InvitationService </title>
<path fill="none" stroke="black" stroke-dasharray="5,2" d="M289,-289.02C289,-289.02 289,-310.53 289,-310.53"/>
<polygon fill="black" stroke="black" points="285.5,-310.53 289,-320.53 292.5,-310.53 285.5,-310.53"/>
</g>
<!-- InvitationRepository -->
<g id="node11" class="node">
<title>InvitationRepository</title>
<ellipse fill="#fdb462" stroke="black" cx="289" cy="-202.8" rx="90.93" ry="18"/>
<text text-anchor="middle" x="289" y="-198.6" font-family="Times,serif" font-size="14.00">InvitationRepository</text>
</g>
<!-- InvitationRepository&#45;&gt;IntersectionModule -->
<g id="edge10" class="edge">
<title>InvitationRepository&#45;&gt;IntersectionModule</title>
<path fill="none" stroke="black" d="M289,-221.02C289,-221.02 289,-242.53 289,-242.53"/>
<polygon fill="black" stroke="black" points="285.5,-242.53 289,-252.53 292.5,-242.53 285.5,-242.53"/>
</g>
<!-- InvitationService -->
<g id="node12" class="node">
<title>InvitationService</title>
<ellipse fill="#fdb462" stroke="black" cx="102" cy="-202.8" rx="77.58" ry="18"/>
<text text-anchor="middle" x="102" y="-198.6" font-family="Times,serif" font-size="14.00">InvitationService</text>
</g>
<!-- InvitationService&#45;&gt;IntersectionModule -->
<g id="edge11" class="edge">
<title>InvitationService&#45;&gt;IntersectionModule</title>
<path fill="none" stroke="black" d="M102,-221.02C102,-241.17 102,-270.8 102,-270.8 102,-270.8 216.21,-270.8 216.21,-270.8"/>
<polygon fill="black" stroke="black" points="216.21,-274.3 226.21,-270.8 216.21,-267.3 216.21,-274.3"/>
</g>
<!-- LoggerService -->
<g id="node14" class="node">
<title>LoggerService</title>
<ellipse fill="#fdb462" stroke="black" cx="1184" cy="-66.8" rx="67.76" ry="18"/>
<text text-anchor="middle" x="1184" y="-62.6" font-family="Times,serif" font-size="14.00">LoggerService</text>
</g>
<!-- LoggerService&#45;&gt;LoggerModule -->
<g id="edge13" class="edge">
<title>LoggerService&#45;&gt;LoggerModule</title>
<path fill="none" stroke="black" d="M1175,-84.67C1175,-84.67 1175,-106.34 1175,-106.34"/>
<polygon fill="black" stroke="black" points="1171.5,-106.34 1175,-116.34 1178.5,-106.34 1171.5,-106.34"/>
</g>
</g>
</svg>
